<?xml version="1.0" encoding="utf-8"?>

<!DOCTYPE svg PUBLIC "-//W3C//DTD SVG 1.1//EN" "http://www.w3.org/Graphics/SVG/1.1/DTD/svg11.dtd">
<!-- Uploaded to: SVG Repo, www.svgrepo.com, Generator: SVG Repo Mixer Tools -->
<svg height="800px" width="800px" version="1.1" id="_x32_" xmlns="http://www.w3.org/2000/svg" xmlns:xlink="http://www.w3.org/1999/xlink" 
	 viewBox="0 0 512 512"  xml:space="preserve">
<style type="text/css">
	.st0{fill:#000000;}
</style>
<g>
	<path class="st0" d="M439.616,151.846V81.819c-0.015-25.396-20.576-45.972-45.979-45.986H122.97h-4.603
		c-25.404,0.014-45.968,20.59-45.978,45.978v70.034L0,333.171V443.72c0.018,17.918,14.524,32.424,32.427,32.446h0.719h445.726h0.7
		c17.904-0.022,32.409-14.528,32.428-32.431V333.171L439.616,151.846z M109.943,81.827c0.008-4.648,3.791-8.435,8.428-8.435h275.258
		c4.64,0,8.424,3.787,8.431,8.428v69.997h-22.682v-23.742c-0.004-20.171-16.422-36.593-36.597-36.6h-44.227
		c-20.172,0.008-36.586,16.429-36.593,36.6v23.742h-11.923v-23.742c-0.008-20.171-16.422-36.593-36.593-36.6h-44.227
		c-20.176,0.008-36.593,16.429-36.596,36.6v23.742h-22.679V81.827z M357.92,128.074v23.742H283.42v-23.734
		c0.015-8.338,6.807-15.134,15.138-15.142h44.22C351.112,112.948,357.904,119.744,357.92,128.074z M228.58,128.074v23.742H154.08
		v-23.734c0.015-8.338,6.808-15.134,15.142-15.142h44.219C221.772,112.948,228.564,119.744,228.58,128.074z M104.266,173.283
		h303.472l5.876,14.715H98.39L104.266,173.283z M89.824,209.464h332.355l46.866,117.398H42.954L89.824,209.464z M474.446,438.608
		H37.555v-90.281h436.891V438.608z"/>
</g>
</svg>